<?xml version="1.0" encoding="utf-8"?>
<!-- Uploaded to: SVG Repo, www.svgrepo.com, Generator: SVG Repo Mixer Tools -->
<svg width="800px" height="800px" viewBox="0 0 1024 1024" class="icon"  version="1.1" xmlns="http://www.w3.org/2000/svg"><path d="M224.4 805.2c0 8.9-7.3 16.2-16.2 16.2h-76.8c-8.9 0-16.2-7.3-16.2-16.2v-18.3c0-8.9 7.3-16.2 16.2-16.2h76.8c8.9 0 16.2 7.3 16.2 16.2v18.3z" fill="#A4A9AD" /><path d="M828.8 536.9v139.3H196.1V536.9h-52.7v233.8h52.7V705h632.7v65.7h52.7V536.9z" fill="#333E48" /><path d="M800.5 805.2c0 8.9 7.3 16.2 16.2 16.2h76.8c8.9 0 16.2-7.3 16.2-16.2v-18.3c0-8.9-7.3-16.2-16.2-16.2h-76.8c-8.9 0-16.2 7.3-16.2 16.2v18.3z" fill="#A4A9AD" /><path d="M143.4 248.9h52.7v271.3h-52.7zM828.8 248.9h52.7v271.3h-52.7z" fill="#333E48" /><path d="M960.3 544.6c0-13.4-11-24.3-24.3-24.3H89c-13.4 0-24.3 11-24.3 24.3v46.6c0 13.4 11 24.3 24.3 24.3h847c13.4 0 24.3-11 24.3-24.3v-46.6z" fill="#FFB819" /><path d="M912.9 369.6c0-13.4-11-24.3-24.3-24.3H136.3c-13.4 0-24.3 11-24.3 24.3v46.6c0 13.4 11 24.3 24.3 24.3h752.3c13.4 0 24.3-11 24.3-24.3v-46.6z" fill="#D68231" /><path d="M855.2 392.9m-13.8 0a13.8 13.8 0 1 0 27.6 0 13.8 13.8 0 1 0-27.6 0Z" fill="#333E48" /><path d="M169.8 392.9m-13.8 0a13.8 13.8 0 1 0 27.6 0 13.8 13.8 0 1 0-27.6 0Z" fill="#333E48" /><path d="M912.9 225.6c0-13.4-11-24.3-24.3-24.3H136.3c-13.4 0-24.3 11-24.3 24.3v46.6c0 13.4 11 24.3 24.3 24.3h752.3c13.4 0 24.3-11 24.3-24.3v-46.6z" fill="#D68231" /><path d="M855.2 248.9m-13.8 0a13.8 13.8 0 1 0 27.6 0 13.8 13.8 0 1 0-27.6 0Z" fill="#333E48" /><path d="M169.8 248.9m-13.8 0a13.8 13.8 0 1 0 27.6 0 13.8 13.8 0 1 0-27.6 0Z" fill="#333E48" /></svg>